<?xml version="1.0" standalone="no"?>
<!DOCTYPE svg PUBLIC "-//W3C//DTD SVG 20010904//EN"
 "http://www.w3.org/TR/2001/REC-SVG-20010904/DTD/svg10.dtd">
<svg version="1.0" xmlns="http://www.w3.org/2000/svg"
 width="900.000000pt" height="520.000000pt" viewBox="0 0 900.000000 520.000000"
 preserveAspectRatio="xMidYMid meet">

<g transform="translate(0.000000,520.000000) scale(0.100000,-0.100000)"
fill="#000000" stroke="none">
<path d="M2798 4720 c-73 -13 -148 -52 -202 -106 -183 -183 -129 -493 105
-604 146 -69 310 -40 424 75 217 216 102 578 -200 634 -64 12 -60 12 -127 1z"/>
<path d="M2345 3839 c-127 -19 -242 -74 -306 -147 -18 -20 -46 -66 -63 -102
l-31 -65 -3 -520 c-3 -590 -4 -584 70 -632 81 -54 186 -26 227 61 20 41 21 58
21 489 l0 447 50 0 50 0 2 -1338 3 -1339 29 -42 c33 -47 93 -86 148 -96 52
-10 136 17 177 57 75 73 71 14 71 956 l0 843 48 -3 47 -3 5 -857 5 -856 30
-44 c95 -134 289 -120 368 27 l22 40 3 1328 2 1327 53 0 52 0 335 -306 c184
-168 349 -312 367 -320 120 -52 243 51 218 184 -6 32 -52 83 -348 380 -188
189 -369 364 -402 389 -74 57 -182 108 -282 134 -70 17 -110 19 -492 18 -229
-1 -443 -5 -476 -10z"/>
<path d="M4115 3360 l49 -50 838 0 c821 0 840 0 900 -21 105 -35 175 -96 228
-196 15 -29 177 -631 180 -670 0 -2 -556 -3 -1235 -3 -679 0 -1235 2 -1235 5
0 3 16 71 36 151 l37 145 -39 40 c-21 21 -41 36 -44 31 -4 -4 -28 -104 -55
-222 -65 -292 -84 -310 -104 -100 -9 95 -16 128 -29 138 -22 16 -164 61 -219
69 l-43 6 0 -180 0 -180 77 -7 c42 -3 102 -6 135 -6 32 0 58 -1 58 -3 0 -2
-26 -30 -59 -63 -99 -102 -101 -113 -101 -504 0 -307 1 -333 20 -384 24 -62
82 -133 146 -177 l44 -30 0 -194 c0 -206 5 -232 48 -279 74 -78 170 -110 316
-104 84 3 111 9 164 32 72 33 126 88 141 143 6 21 11 107 11 191 l0 152 664 0
664 0 4 -172 c4 -191 10 -212 70 -263 63 -54 134 -77 244 -83 145 -7 242 25
316 104 43 46 48 74 48 267 l1 182 49 23 c72 34 154 113 187 180 l28 57 0 355
0 355 -28 56 c-15 31 -50 77 -77 103 -28 26 -50 48 -50 50 0 2 122 9 271 16
l271 14 10 25 c12 31 4 235 -11 275 -29 75 -217 75 -462 0 l-87 -26 -11 -112
c-18 -168 -20 -177 -46 -158 -6 4 -46 160 -89 346 -50 218 -88 363 -107 405
-74 163 -199 264 -377 305 -62 14 -176 16 -934 16 l-862 0 49 -50z m320 -1640
c0 -110 -3 -145 -12 -144 -7 1 -146 2 -308 3 l-295 1 0 138 c0 76 3 142 7 145
4 4 142 6 307 5 l301 -3 0 -145z m1973 3 l3 -143 -306 0 -305 0 0 145 0 145
303 -2 302 -3 3 -142z m-738 72 l0 -65 -555 0 -555 0 0 65 0 65 555 0 555 0 0
-65z m0 -157 l0 -63 -547 2 c-302 2 -551 3 -555 3 -5 0 -8 27 -8 60 l0 60 555
0 555 0 0 -62z"/>
</g>
</svg>
